<?xml version="1.0" standalone="no"?>
<!DOCTYPE svg PUBLIC "-//W3C//DTD SVG 20010904//EN"
 "http://www.w3.org/TR/2001/REC-SVG-20010904/DTD/svg10.dtd">
<svg version="1.0" xmlns="http://www.w3.org/2000/svg"
 width="700.000000pt" height="700.000000pt" viewBox="0 0 700.000000 700.000000"
 preserveAspectRatio="xMidYMid meet">
<metadata>
Created by potrace 1.14, written by Peter Selinger 2001-2017
</metadata>
<g transform="translate(0.000000,700.000000) scale(0.100000,-0.100000)"
fill="#000000" stroke="none">
<path d="M3479 5463 c-534 -535 -884 -893 -913 -934 -65 -94 -142 -260 -173
-376 -25 -90 -27 -113 -27 -293 0 -179 2 -203 26 -292 15 -53 46 -137 69 -188
49 -105 37 -105 114 7 43 63 1752 1783 1771 1783 13 0 101 -105 154 -184 l33
-49 29 57 c40 79 84 215 104 321 24 131 15 354 -20 488 -44 169 -146 361 -253
476 l-48 52 -866 -868z"/>
<path d="M4485 3688 c-36 -54 -276 -301 -919 -946 l-871 -873 -51 55 c-29 30
-72 85 -95 121 l-44 67 -37 -79 c-122 -258 -148 -527 -77 -806 41 -163 146
-358 255 -475 l49 -53 866 868 c525 526 884 894 912 934 93 132 166 306 198
469 17 87 17 317 0 410 -18 98 -61 232 -103 315 l-34 66 -49 -73z"/>
</g>
</svg>
