<svg viewBox="0 0 1000 1000" xmlns="http://www.w3.org/2000/svg"><g fill="#8079bc"><rect height="175.22" rx="20.96" transform="matrix(-1 0 0 -1 1000 528.4)" width="298.54" x="350.73" y="176.59"/><path d="m592.75 341.08 7.09 29.58a5.16 5.16 0 0 1 -8.32 5.18l-44.67-37.14z"/><path d="m407.25 341.08-7.09 29.58a5.16 5.16 0 0 0 8.32 5.18l44.67-37.14z"/></g><g fill="#9ad3bb"><circle cx="556.31" cy="264.2" r="7.17"/><circle cx="500" cy="264.2" r="7.17"/><circle cx="443.69" cy="264.2" r="7.17"/></g><circle cx="239.36" cy="609.06" fill="#ededed" r="214.36"/><path d="m282.77 666.34c2.87-15.65.6-27 7-41.53 10.09-23.16 24.64-45 31.09-69.38 2.66-10.06 10.41-25.28 17.38-33 1.32-1.48 2.84-2.38 4.73-1.78 2.38.77 2.24 6 1.95 8.5-.56 5.06-2.79 6.8-4.31 11.67 6.84-1.46 13.93-.56 20.87.35 4.29.56 9.89 2.73 9.21 7-.61 3.81-6 5.15-7 8.86-.46 1.59 0 3.29.33 4.91 2.4 12.05-4.26 25.3-15.35 30.58a7.62 7.62 0 0 0 -2.74 1.75 6.59 6.59 0 0 0 -1.12 2.9c-7.62 36.66-5.2 75.5-18.44 110.52-4.48 11.83-10.65 22.93-16.79 34-5 8.94-10.37 18.32-19.27 23.36-12.41 7-30 2.55-37.54-9.55" fill="#2f2c2b"/><path d="m293.86 620.3 42.76 63.21a2.54 2.54 0 0 0 4.61-1 144.56 144.56 0 0 1 11.59-36.23c14.8-31.89 28.47-83.93 28.47-83.93l26.87 3.73s-8.45 235.13-75.41 204.2c-56-25.87-101.75-100.78-101.75-100.78" fill="#ffd7ad"/><path d="m320.3 660.65c7.05 11.68 14.22 23.29 23.58 33.29 1.26 1.35 3.29-.68 2-2-9.2-9.83-16.21-21.25-23.14-32.71a1.43 1.43 0 0 0 -2.47 1.44z" fill="#2f2c2b"/><path d="m277 398.27a18.7 18.7 0 0 1 12.7 22.81 10.45 10.45 0 0 1 -1.63 3.61 9.9 9.9 0 0 1 -4.55 3.2c-5.9 2.22-12.91.36-17.52-3.94s-6.91-10.72-7-17" fill="#2f2c2b"/><path d="m192.44 471.09-16.09 90.76 64.62 1.98 11.76-76.41z" fill="#ffd7ad"/><path d="m280.85 425.21c.93 11.74 0 25.63 7.9 34.16a3.61 3.61 0 0 1 -.29 5.22l-1.8 1.53a5 5 0 0 0 -1.72 4.31c1 9.16 2.26 45-25.35 44.08-20.15-.7-42-11.16-56.67-25.79-26.7-26.66-31.63-74.94-1.49-101.13 27.91-24.24 71.18-3.52 78.45 30.37a56.46 56.46 0 0 1 .97 7.25z" fill="#ffd7ad"/><path d="m293.92 387.13c-2.27-6.65-8.27-11.64-15-13.71a34.93 34.93 0 0 0 -19.05.09 4.68 4.68 0 0 0 1.14-6.06c-1.61-2.46-4.85-3.25-7.79-3.31a24.72 24.72 0 0 0 -17.52 7c-4-2.79-9.34-3.25-14.11-2.13s-9.07 3.68-13.06 6.52a91.82 91.82 0 0 0 -13.53 11.76c-1.86-1.81-4.94-1.23-7.33-.23-10.07 4.19-17.43 13.75-20.13 24.32s-1 22 3.45 31.93c3.09 6.89 7.48 13.23 9.48 20.51a59.31 59.31 0 0 1 1.61 14.81c.06 3.73.2 7.88 2.83 10.54 4.26 4.31 11.55 1.7 16.78-1.39 14.89-8.81 29.42-21.15 33.08-38.06 2.45 1.65 6-.16 7.27-2.84s.88-5.79.48-8.72a5.38 5.38 0 0 1 .78-3.65 75 75 0 0 0 10.06-24.86 4.86 4.86 0 0 1 7.11-3.34c4.19 2.38 9.66 3.18 14.61 3.07 4.62-.1 9.44-.76 13.24-3.4 5.8-3.98 7.86-12.2 5.6-18.85z" fill="#2f2c2b"/><path d="m184.47 485.37v.21a.34.34 0 0 0 0-.21z" fill="#e3b764"/><ellipse cx="239.7" cy="455.47" fill="#ffd7ad" rx="11.04" ry="14.38" transform="matrix(.84 -.54 .54 .84 -207.07 199.93)"/><path d="m236.83 453c1-.17 2 1.05 2.47 1.79a4.59 4.59 0 0 1 .6 1.36 1.26 1.26 0 0 1 .09.6c.77.12 1.25-.13 1.43-.74.86-1.63-1.62-3.08-2.47-1.45s-1 3.7 1 4.46a2.28 2.28 0 0 0 3-2.42c-.07-3.35-3.35-6.93-6.79-6.37-1.82.3-1 3.06.76 2.77z" fill="#2f2c2b"/><path d="m269.52 442.3a7 7 0 0 0 -2.13 3.73c-.24 1.29-.33 3.11.86 4a2.18 2.18 0 0 0 3.27-1.16 2.8 2.8 0 0 0 -1.82-3.35c-1.67-.76-3.13 1.71-1.45 2.47a3.55 3.55 0 0 1 .55.28q1.6.4 1.32-.51c.1-.4 0-.84.11-1.26a4.18 4.18 0 0 1 1.32-2.14c1.36-1.25-.67-3.27-2-2z" fill="#2f2c2b"/><path d="m363.54 428.17a1.43 1.43 0 0 0 0-2.86 1.43 1.43 0 0 0 0 2.86z" fill="#fff"/><path d="m378.47 403.9a1.43 1.43 0 0 0 0-2.86 1.43 1.43 0 0 0 0 2.86z" fill="#fff"/><circle cx="760.64" cy="609.06" fill="#ededed" r="214.36"/><path d="m583.84 648.6c-15.29.52-30-11.75-32.19-26.9a9.41 9.41 0 0 1 -.92 5c-.91 1.48-3 2.35-4.43 1.31a4.12 4.12 0 0 1 -1.15-1.52 21 21 0 0 1 16.85-30.49l-9.37-12.84a4.24 4.24 0 0 1 -1-1.89c-.21-1.47 1.18-2.78 2.65-3a7.8 7.8 0 0 1 4.28.91 52.87 52.87 0 0 1 26.07 25.27l.41-5.11c3.23-1.05 6 2.5 7.3 5.64a52 52 0 0 1 2.66 31.02" fill="#ffbea2"/><path d="m721.76 423.3c-3.14 8.39-5.49 30-7.34 38.74-3.16 15-12.64 27.72-22.21 39.65-4.09 5.09-8.3 10.23-10.67 16.31a31.34 31.34 0 0 0 4 29.45c3.94 5.31 10 10.69 8.44 17.12a17.12 17.12 0 0 1 -3 5.64c-5.2 7.36-10.16 15.12-12.43 23.85s-1.52 18.65 3.93 25.82c2.88 3.78 7 6.79 8.61 11.25a47.62 47.62 0 0 1 1.38 6.84c2.26 11.2 13.05 19.54 24.41 20.75s22.79-3.85 31.09-11.71 13.77-18.27 17.68-29c5.23-14.35 7.91-29.49 10.12-44.61q1.42-9.71 2.61-19.46c.94-7.77 1.78-15.62 4.22-23 3.63-11.09 10.62-20.75 15.31-31.44s6.83-23.68.74-33.63" fill="#d39f4c"/><path d="m715 584.13c-3.84-14-11.64-27.48-22.66-36.34a2.71 2.71 0 0 0 -1.21-.57c-2-.33-2.71 1.94-2.76 3.7a30.25 30.25 0 0 0 4.47 16.62 28.07 28.07 0 0 0 -15.76-1.78c-4 .7-8.23 2.67-9.68 6.47s2 9 5.85 7.88c-.7 4.47-1.41 9-.7 13.51s3.06 8.92 7.09 11c2.44 1.26 5.46 1.66 7.29 3.72.91 1 1.43 2.38 2.46 3.28 1.75 1.53 4.36 1.32 6.66 1 6.55-.84 14.27-2.51 16.78-8.62.61-1.51.85-3.2 1.77-4.55.53-.78-.46 5 0 4.19s.71-1.45 1.13-3.95a36.16 36.16 0 0 0 -.73-15.56z" fill="#2f2c2b"/><path d="m688.34 609.06c-3.2 8-1.14 17 1 25.3l12.86 51c2.64 10.45 5.77 21.69 14.27 28.3a25 25 0 0 0 22 4.17 25.43 25.43 0 0 0 16.4-15.34c4.65-12.53-1.13-26.29-6.81-38.39l-13.56-28.84-12.07-25.72c-1.95-4.15-4-8.46-7.66-11.25s-9.32-3.48-12.6-.28" fill="#2f2c2b"/><path d="m797.92 484.79 31.02 73.89-47.12 9.54-28.12-74.02z" fill="#ffbea2"/><path d="m723.8 437.36c-1.36 11.69-.92 25.61-9.15 33.85a3.61 3.61 0 0 0 .1 5.22l1.74 1.6a4.92 4.92 0 0 1 1.56 4.37c-1.36 9.11-4.42 40.36 23.21 40.42 19.25 0 35.93-14.13 50.09-25.43 12.18-9.73 23.23-22.76 28.73-37.51 9.47-25.4-3.06-54.74-28.39-65-27.69-11.25-59.44 6.78-66.69 35.27a54.62 54.62 0 0 0 -1.2 7.21z" fill="#ffbea2"/><path d="m719.74 437.51q14.93-7.12 29.1-15.67c12.18-7.35 24.52-16.2 29.94-29.36a2.6 2.6 0 0 0 .27-1.56c-.33-1.28-2.13-1.3-3.42-1-10.14 2.16-20.25 4.92-29.47 9.65s-17.58 11.59-22.76 20.57c-3 5.25-4.95 11.37-4.11 17.37" fill="#e3b764"/><path d="m760.92 413.31c-8.67 15.56-6.4 36.5 5.42 49.83a5 5 0 0 1 1.41 2.3c.15.84-.17 1.71 0 2.55.42 2 3 2.38 5 3 4.78 1.42 7.65 6.11 10.5 10.2a78.78 78.78 0 0 0 17.94 18.41 4.2 4.2 0 0 0 5.77-.79l11.11-14a93.14 93.14 0 0 0 5.93-8.05 51.89 51.89 0 0 0 4.93-10.27c10.68-29.86-1.56-77.78-49.8-76.55-5.14.13 0 0-3.93 3.59" fill="#e3b764"/><path d="m824 476.74a51.89 51.89 0 0 0 4.93-10.27 67.13 67.13 0 0 0 1-40.06 20.59 20.59 0 0 1 -1.51 6.75c-1.08 2.33-3.15 4.37-5.71 4.68-2 .24-4.08-.55-5.92.2-2.42 1-3.2 4-5.22 5.71-3 2.47-7.58 1-10.69-1.27s-5.76-5.46-9.46-6.62a10.1 10.1 0 0 0 -8.34 1.14c-1.93 1.25-3.37 3.13-5.18 4.55a13.64 13.64 0 0 1 -21.15-15.68l-.41.6c-2.22 12.89 1.3 26.85 10 36.67a5 5 0 0 1 1.41 2.3c.15.84-.17 1.71 0 2.55.42 2 3 2.38 5 3 4.78 1.42 7.65 6.11 10.5 10.2a78.78 78.78 0 0 0 17.94 18.41 4.2 4.2 0 0 0 5.77-.79l11.11-14a93.14 93.14 0 0 0 5.93-8.07z" fill="#d39f4c"/><ellipse cx="763.81" cy="469.11" fill="#ffbea2" rx="14.38" ry="11.04" transform="matrix(.56755638 -.82333453 .82333453 .56755638 -55.92 831.76)"/><g fill="#2f2c2b"><path d="m766.11 462.85c-1.91 1.19-5.6 4.24-3.66 6.75a2.22 2.22 0 0 0 3.42.3 1.72 1.72 0 0 0 .25-2 2 2 0 0 0 -.61-.62c-.14-.08-.88-.44-.53-.16-1.41-1.16-3.45.85-2 2a3.36 3.36 0 0 0 .6.41l.34.15c.44.17.31 0-.37-.57l.14-1.1.3-.3h.76c-.15 0-.14.12 0 .3a.89.89 0 0 1 .2-.37 5.26 5.26 0 0 1 .71-.78 10 10 0 0 1 1.88-1.61c1.56-1 .12-3.45-1.45-2.47z"/><path d="m735.47 459.88.15-.14-.63.37h-.14l-.64-.37c.75.61.53 2.27.31 3.08l2.11-.85a.58.58 0 0 1 .2.7c1.36-1.24-.67-3.26-2-2a2.42 2.42 0 0 0 .38 3.79 1.45 1.45 0 0 0 2.11-.86 7.25 7.25 0 0 0 -.26-4.71c-.62-1.48-2.28-2.26-3.59-1s.68 3.28 2 2z"/><path d="m733 450.52a7.67 7.67 0 0 1 5.15.31c1.67.74 3.13-1.73 1.45-2.47a10.68 10.68 0 0 0 -7.36-.6 1.43 1.43 0 0 0 .76 2.76z"/><path d="m267.56 431.59a12 12 0 0 1 5.16.81c1.72.67 2.46-2.1.76-2.76a13.89 13.89 0 0 0 -5.92-.92c-1.83.11-1.84 3 0 2.87z"/></g><path d="m258.44 561.52c-18.46-19.67-38.68-24.84-56.57-23.78-28.48 1.7-53.44 19.61-64.91 45.73-28.65 65.21-34.67 154.17-35.96 189.34a214.82 214.82 0 0 0 180.51 46.45c-4-25.09-7.83-53.74-7.45-68.58.14-4.43 32.28-138.14-15.62-189.16z" fill="#9ad3bb"/><path d="m277.53 791.91c-2.17-16.38-2.56-37.94-2.32-47.5 0-1.34 1.86-8.17 4.64-27.22q-4.55-12-10-23.7l-55.72-26.82c-1.48 28.7 3.25 58.29 17.64 83.16 10.53 18.17 26.7 33.57 45.76 42.08z" fill="#2f2c2b"/><path d="m866.93 620.76c-5.54-33.32-23.38-89.46-68.14-77-27.36 7.65-42.5 35.82-51.23 60.73-11.35 32.37-14.73 66.83-4.14 100a159.63 159.63 0 0 1 5.66 72l-6.85 46.16q9.1.78 18.41.78a213.37 213.37 0 0 0 113.52-32.49c-2.75-13.91-5-26.22-5.42-29.06-3.88-26.41-.14-51.26 1.08-77.48.99-21.24.6-42.65-2.89-63.64z" fill="#46a6d1"/><path d="m792.33 684.13-44.71 36.46a160.86 160.86 0 0 1 1.46 55.88l-4.14 27.87a18.94 18.94 0 0 0 2.93-2.32c31.28-30.1 48.13-74.63 44.46-117.89z" fill="#2f2c2b"/><path d="m287.11 467.73a3 3 0 0 0 -1.9-2.14c-4.28-1.57-16.91-6.2-21.53-7.85s-5.17 5.13-5.62 8.14a170.41 170.41 0 0 1 -8.27 33.56c-1 2.76-2.89 5.4-2.86 8.43 0 3.32 3.06 5.45 5.8 6.66 7.84 3.43 22.46 6.47 27.13-3.45 4.45-9.46 9.95-31.76 7.25-43.35z" fill="#82b579"/><path d="m279.41 470.86c-.69-2.1-3.85-1.27-5.72-2.15-1.57-.75-2.92-1.89-4.48-2.65-1.76-.85-3.7-1.23-5.51-1.94a7.36 7.36 0 0 1 -4.35-3.66l-.26.08a29.38 29.38 0 0 0 -1 5.34 170.41 170.41 0 0 1 -8.27 33.56c-1 2.76-2.89 5.4-2.86 8.43 0 3.32 3.06 5.45 5.8 6.66 4.82 2.11 12.21 4.07 18.27 3 2.84-7.64 12.89-32.84 8.38-46.67z" fill="#6b9160"/><g fill="#2f2c2b"><path d="m246.56 511.69a37 37 0 0 0 16.27 6.12c4.39.55 9.37 1.2 13.2-1.4 1.52-1 .09-3.52-1.45-2.48-3.7 2.52-10.21 1.47-14.37.59a34.37 34.37 0 0 1 -12.2-5.31c-1.54-1-3 1.45-1.45 2.48z"/><path d="m237.52 438.94c4.73 3.69 8.12 8.9 12.06 13.39 4.26 4.85 8.77 9.46 13.47 13.88a1.44 1.44 0 0 0 2 0l.79-.37-1.84-1.38-.21 1.82 2.1-.86-.94-.6c-1.55-1-3 1.47-1.44 2.47l.93.61a1.46 1.46 0 0 0 2.11-.86 3.78 3.78 0 0 0 .32-2.58 1.46 1.46 0 0 0 -1.81-1.38 2.79 2.79 0 0 0 -2.05 1.11h2c-4.69-4.43-9.2-9-13.46-13.89-3.94-4.49-7.33-9.69-12.07-13.39-1.43-1.12-3.48.89-2 2z"/><path d="m225.83 459.39q15.19 23 28.07 47.43a1.44 1.44 0 0 0 2.61-.35l-1.12-.81c-1.62.87-.18 3.35 1.45 2.47 4.24-2.28-1.64-7.22-3.09-2.42l2.62-.34q-12.87-24.37-28.06-47.43c-1-1.53-3.5-.1-2.48 1.45z"/></g><path d="m716.53 479a3 3 0 0 1 1.9-2.13c4.28-1.57 16.91-6.2 21.53-7.85s5.18 5.13 5.62 8.14a170.61 170.61 0 0 0 8.28 33.56c1 2.75 2.88 5.39 2.85 8.43 0 3.32-3.05 5.45-5.8 6.65-7.84 3.44-22.46 6.48-27.13-3.44-4.45-9.48-9.95-31.77-7.25-43.36z" fill="#e57d79"/><path d="m724.23 482.13c.69-2.1 3.85-1.27 5.72-2.16 1.57-.74 2.92-1.88 4.49-2.64 1.75-.85 3.69-1.23 5.5-1.94a7.36 7.36 0 0 0 4.35-3.66l.26.08a29.38 29.38 0 0 1 1 5.34 170.61 170.61 0 0 0 8.28 33.56c1 2.75 2.88 5.39 2.85 8.43 0 3.32-3.05 5.45-5.8 6.65-4.82 2.12-12.21 4.08-18.27 3-2.84-7.63-12.89-32.79-8.38-46.66z" fill="#d05c60"/><g fill="#2f2c2b"><path d="m755.64 520.48a34.07 34.07 0 0 1 -12.21 5.31c-4.29.86-10.57 2-14.37-.59-1.53-1-3 1.44-1.45 2.47 3.84 2.61 8.81 2 13.2 1.41a36.86 36.86 0 0 0 16.27-6.08c1.53-1 .09-3.5-1.44-2.47z"/><path d="m760.88 453.41c-9.15 5.36-14.8 14.82-22.31 22h2a2.81 2.81 0 0 0 -2.05-1.1 1.46 1.46 0 0 0 -1.81 1.38 3.84 3.84 0 0 0 .32 2.58 1.46 1.46 0 0 0 2.11.85l.93-.6c1.55-1 .11-3.48-1.44-2.48l-.94.61 2.11.86-.22-1.82-1.82 1.38.79.37a1.45 1.45 0 0 0 2 0c7.31-7 12.83-16.38 21.74-21.6a1.43 1.43 0 0 0 -1.45-2.47z"/><path d="m775.19 469.55c-6.13 17.68-19.2 30.85-27.92 47.09l2.62.34c-1.44-4.78-7.36.13-3.09 2.42 1.63.87 3.08-1.6 1.45-2.47l-1.12.81a1.44 1.44 0 0 0 2.61.34c8.85-16.46 22-29.82 28.21-47.77.61-1.74-2.16-2.49-2.76-.76z"/><path d="m721.05 438.27a107.69 107.69 0 0 0 40.37-23.36c1.36-1.25-.67-3.27-2-2a104.3 104.3 0 0 1 -39.11 22.63c-1.75.56-1 3.32.76 2.76z"/><path d="m757 448.39a18.23 18.23 0 0 0 4.91 7.42c1.37 1.23 3.4-.79 2-2a15 15 0 0 1 -4.17-6.15c-.62-1.72-3.39-1-2.77.76z"/><path d="m775.19 468.13a42.77 42.77 0 0 0 10.37 19.87c1.25 1.36 3.28-.67 2-2a39.79 39.79 0 0 1 -9.56-18.63c-.4-1.8-3.16-1-2.76.76z"/></g><path d="m760.68 575.93s-30 63.37-49.91 126.21c0 0-52.27-29.86-84-52.27-13.36-9.43-21.87-15.22-27.24-18.76a10.16 10.16 0 0 0 -14.22 3.09l-6.57 10.51a10.16 10.16 0 0 0 .41 11.38c19.19 26.27 102.1 135.23 143.94 116.37 63.5-28.63 91.44-147.23 90.36-163.4s-52.77-33.13-52.77-33.13z" fill="#46a6d1"/><path d="m753.05 753.77c22.33-24.86 37.62-55.3 48.19-86.81.58-1.75-2.18-2.5-2.77-.76-10.4 31-25.46 61.07-47.44 85.54-1.23 1.37.79 3.4 2 2z" fill="#2f2c2b"/><path d="m238.53 545.81s37.58 18.66 84.75 107.49a13.67 13.67 0 0 1 .59 11.6 383.86 383.86 0 0 1 -41.55 74.75 11.39 11.39 0 0 1 -17.6 1.13c-19.68-21.17-63.9-70.65-68.24-92.54-5.6-28.24-9.24-115.96 42.05-102.43z" fill="#9ad3bb"/><path d="m200.91 660.7a447.71 447.71 0 0 0 70.33 88.3c1.32 1.28 3.35-.74 2-2a444.9 444.9 0 0 1 -69.88-87.74 1.43 1.43 0 0 0 -2.47 1.44z" fill="#2f2c2b"/><path d="m375 583.89c2.91-7.58 1.76-16 .87-24.09s-1.33-16.75 2.7-23.79c.9-1.58 2.16-3.13 3.92-3.56s4 .91 3.77 2.71c1.06-3.87 4.65-6.42 8-8.64l9.21-6.11c3.92-2.59 8.06-5.27 12.74-5.58 1.39-.09 3 .18 3.68 1.42.82 1.56-.54 3.34-1.79 4.58l-7.37 7.29a17.2 17.2 0 0 1 15.65 21.72c-.47 1.7-1.32 3.46-2.92 4.17s-4-.33-3.88-2.08c2 7.59 1.36 16.17-3.22 22.53-2.51 3.49-6.11 6.18-8.18 9.95-3.77 6.84-1.79 15.8-5.74 22.53" fill="#ffd7ad"/><g fill="#2f2c2b"><path d="m323.84 504.94 3.58 7.54c.79 1.67 3.26.22 2.47-1.44l-3.58-7.54c-.79-1.67-3.26-.22-2.47 1.44z"/><path d="m321.24 500.1a1.43 1.43 0 0 0 0-2.86 1.43 1.43 0 0 0 0 2.86z"/><path d="m340.41 487.47.72 15.55c.08 1.83 2.95 1.84 2.86 0l-.72-15.55c-.08-1.84-2.95-1.85-2.86 0z"/><path d="m360.62 499.3a74.12 74.12 0 0 0 -6.05 12c-.68 1.72 2.09 2.46 2.76.77a70.55 70.55 0 0 1 5.76-11.33c1-1.56-1.5-3-2.47-1.44z"/><path d="m367.29 495.75a1.44 1.44 0 0 0 0-2.87 1.44 1.44 0 0 0 0 2.87z"/><path d="m367.12 522.14 4.46-4.88c1.24-1.36-.78-3.39-2-2l-4.46 4.89c-1.24 1.35.78 3.39 2 2z"/><path d="m707.88 710.05 4.38-13.05c.59-1.75-2.17-2.5-2.76-.76l-4.39 13.06c-.59 1.75 2.18 2.5 2.77.76z"/><path d="m701.05 382.76 12.17 22.39c.88 1.62 3.35.17 2.47-1.45l-12.16-22.38c-.88-1.62-3.36-.18-2.48 1.44z"/><path d="m730.87 368.37 3.79 14a1.43 1.43 0 0 0 2.76-.76l-3.79-14a1.43 1.43 0 0 0 -2.76.76z"/><path d="m727.57 353.56a1.43 1.43 0 0 0 0-2.86 1.43 1.43 0 0 0 0 2.86z"/><path d="m765.34 358.66v11.2a1.43 1.43 0 0 0 2.86 0v-11.2a1.43 1.43 0 0 0 -2.86 0z"/><path d="m685.07 418a2.05 2.05 0 0 1 2.36.37c1.31 1.29 3.34-.73 2-2a4.85 4.85 0 0 0 -5.14-1.11 1.48 1.48 0 0 0 -1 1.77 1.45 1.45 0 0 0 1.76 1z"/></g></svg>